<?xml version="1.0" encoding="utf-8"?>
<svg version="1.1" xmlns="http://www.w3.org/2000/svg" xmlns:xlink="http://www.w3.org/1999/xlink" x="0px" y="0px"
	 viewBox="0 0 1024 1024" style="enable-background:new 0 0 1024 1024;" xml:space="preserve">
<g>
	<g>
		<path d="M835.2,45.9H105.2v166.8l93.2,61.5h115.8H356h30.6v-82.8H134.2v-24.9h286.2v107.6h32.2V141.6H134.2V118h672.1v23.6H486.4
			v132.5h32V166.5h287.8v24.9H553.8v82.8h114.1H693h225.6V114.5L835.2,45.9z M806.2,93.2H134.2V67.2h672.1v26.1H806.2z"/>
		<polygon points="449.3,1008.2 668,1008.2 668,268.9 553.8,268.9 553.8,925.4 518.4,925.4 518.4,268.9 486.4,268.9 486.4,925.4
			452.6,925.4 452.6,268.9 420.4,268.9 420.4,925.4 386.6,925.4 386.6,268.9 356,268.9 356,946.7 		"/>
	</g>
</g>
</svg>
